<svg width="190" height="28" viewBox="0 0 190 28" fill="none" xmlns="http://www.w3.org/2000/svg">
<path d="M66.0713 14.0205C66.0713 8.60162 69.7495 4.88098 74.7994 4.88098C76.7117 4.88098 78.5508 5.42904 79.6295 6.00541L80.3394 5.08168H80.6097L80.7082 11.4732H80.4152C79.1142 7.22761 77.0806 5.20519 74.9232 5.20519C71.8589 5.20519 70.6311 8.82548 70.6311 13.5959C70.6311 18.8141 72.0534 21.786 75.388 21.786C77.9117 21.786 79.8493 20.2396 81.0998 17.7668L81.3701 17.8904C80.2914 20.538 78.0355 22.7354 74.4584 22.7354C69.8 22.7354 66.0738 19.514 66.0738 14.0205" fill="white"/>
<path d="M82.542 22.1875C83.2291 22.1386 83.9895 22.064 84.2826 21.9636C84.8712 21.7655 85.0177 21.3641 85.0177 20.8135V6.95499C85.0177 6.40693 84.8686 5.93092 84.2826 5.73022C83.891 5.60671 83.1533 5.53209 82.542 5.48063V5.30566H91.5884V5.48063C91.1716 5.53209 90.2647 5.58098 89.8478 5.70449C89.2592 5.87946 89.1127 6.37863 89.1127 6.92926V20.762C89.1127 21.3101 89.2845 21.7604 89.8478 21.9611C90.1409 22.0614 91.0251 22.136 91.5884 22.1849V22.3599H82.542V22.1849V22.1875Z" fill="white"/>
<path d="M93.0537 14.0205C93.0537 8.60162 96.7319 4.88098 101.782 4.88098C103.694 4.88098 105.533 5.42904 106.612 6.00541L107.322 5.08168H107.592L107.691 11.4732H107.398C106.097 7.22761 104.063 5.20519 101.906 5.20519C98.8413 5.20519 97.6135 8.82548 97.6135 13.5959C97.6135 18.8141 99.0358 21.786 102.37 21.786C104.897 21.786 106.832 20.2396 108.082 17.7668L108.353 17.8904C107.274 20.538 105.018 22.7354 101.441 22.7354C96.7824 22.7354 93.0562 19.514 93.0562 14.0205" fill="white"/>
<path d="M107.587 22.1875C108.029 22.1386 108.519 22.1618 108.936 21.889C109.55 21.4902 109.941 20.7903 110.31 19.9412C111.169 18.0192 115.653 7.20718 116.487 5.03552H117.859C119.011 7.98167 123.277 19.6428 123.719 20.7157C123.914 21.2149 124.111 21.5906 124.7 21.889C125.091 22.0872 125.581 22.1386 126.001 22.1875V22.3625H116.954V22.1875C117.788 22.1129 119.554 21.9894 119.554 21.3641C119.554 21.166 119.503 20.9653 119.455 20.8392L117.788 16.2952H112.321C112.175 16.694 111.119 19.4163 111.02 19.7148C110.8 20.3632 110.654 20.9396 110.654 21.2638C110.654 22.1386 112.738 22.1129 113.572 22.1875V22.3625H107.589V22.1875H107.587ZM117.614 15.8192L115.163 9.35311L112.516 15.8192H117.616H117.614Z" fill="white"/>
<path d="M133.668 20.7157C133.668 21.2638 133.863 21.6883 134.403 21.9379C134.696 22.064 135.676 22.1386 136.119 22.1875V22.3625H126.974V22.1875C127.416 22.1618 128.542 22.064 128.838 21.9379C129.427 21.714 129.573 21.2895 129.573 20.7157V7.02961C129.573 6.48155 129.452 6.03127 128.838 5.78168C128.371 5.58098 127.39 5.53209 126.974 5.48063V5.30566H135.972C139.797 5.30566 142.272 6.50471 142.272 9.20127C142.272 11.8978 140.163 13.1458 137.591 13.6964V13.8714C139.797 14.121 140.754 14.8466 141.588 16.9693C141.979 17.9677 142.52 20.0904 142.667 20.5407C143.058 21.7398 143.697 21.9147 144.162 22.0125C144.652 22.1129 145.193 22.1618 145.632 22.1875V22.3625H138.794C138.425 20.5407 137.985 19.141 137.397 17.4196C136.636 15.2222 136.197 14.0746 134.456 14.0746H133.671V20.7157H133.668ZM134.06 13.7247C136.217 13.7247 137.859 12.5745 137.859 9.6284C137.859 7.1068 136.707 5.63244 134.477 5.63244H133.668V13.7221H134.06V13.7247Z" fill="white"/>
<path d="M146.534 22.1875C147.221 22.1386 147.931 22.064 148.226 21.9636C148.815 21.7655 148.961 21.3641 148.961 20.8135V6.95499C148.961 6.40693 148.815 5.93092 148.226 5.73022C147.832 5.60671 147.148 5.53209 146.534 5.48063V5.30566H160.777V9.77506H160.506C160.14 8.62491 158.397 5.90519 157.098 5.73022C156.51 5.6556 155.752 5.60671 154.989 5.60671H153.051V13.3722H154.645C155.992 13.3722 156.485 12.9734 156.803 12.6492C157.318 12.1243 157.907 10.7014 158.005 10.0272H158.276V17.1443H158.005C157.907 16.3698 157.22 14.8466 156.803 14.3988C156.459 14.0232 155.944 13.6758 154.645 13.6758H153.051V19.9438C153.051 21.7681 153.418 22.0666 155.651 22.0666C157 22.0666 158.346 22.0666 158.935 21.467C159.94 20.4687 161.312 18.0706 161.802 17.1469H162.025L161.706 22.365H146.531V22.1901L146.534 22.1875Z" fill="white"/>
<path d="M163.371 22.1876C163.788 22.1387 164.94 22.0873 165.233 21.9637C165.822 21.7142 165.968 21.2639 165.968 20.7158V6.98084C165.968 6.43278 165.847 6.00822 165.233 5.75863C164.768 5.55794 163.788 5.53478 163.371 5.48332V5.30835H172.564V5.48332C172.122 5.53478 171.266 5.48332 170.823 5.63255C170.235 5.83325 170.063 6.3067 170.063 6.85733V19.9182C170.063 21.866 170.48 22.0667 172.663 22.0667C173.888 22.0667 175.017 21.9174 175.482 21.4414C176.315 20.5923 177.786 18.1942 178.422 16.972H178.619L178.301 22.3651H163.371V22.1902V22.1876Z" fill="white"/>
<path d="M180.233 22.1875C180.921 22.1386 181.681 22.064 181.974 21.9636C182.563 21.7655 182.709 21.3641 182.709 20.8135V6.95499C182.709 6.40693 182.56 5.93092 181.974 5.73022C181.582 5.60671 180.845 5.53209 180.233 5.48063V5.30566H189.28V5.48063C188.863 5.53209 187.956 5.58098 187.539 5.70449C186.951 5.87946 186.804 6.37863 186.804 6.92926V20.762C186.804 21.3101 186.976 21.7604 187.539 21.9611C187.832 22.0614 188.716 22.136 189.28 22.1849V22.3599H180.233V22.1849V22.1875Z" fill="white"/>
<path d="M29.8697 28C22.291 28 16.1245 21.7192 16.1245 14C16.1245 6.28083 22.291 0 29.8697 0C37.4484 0 43.6149 6.28083 43.6149 14C43.6149 21.7192 37.4484 28 29.8697 28ZM29.8697 0.77449C22.7104 0.77449 16.8849 6.70796 16.8849 14C16.8849 21.292 22.7104 27.2255 29.8697 27.2255C37.029 27.2255 42.8545 21.292 42.8545 14C42.8545 6.70796 37.029 0.77449 29.8697 0.77449Z" fill="#CEB888"/>
<path d="M32.6188 17.1185L32.4117 16.3723C32.4471 16.362 36.0015 15.32 36.7139 13.3439C36.9639 12.6543 36.8301 11.9338 36.3097 11.1439C34.8318 8.90018 31.8003 10.5366 31.7675 10.5521L31.4062 9.87022C32.6719 9.1755 35.4533 8.45504 36.9412 10.7116C37.598 11.71 37.7622 12.6851 37.4262 13.6114C36.5774 15.9581 32.778 17.0696 32.6163 17.116" fill="#CEB888"/>
<path d="M26.7323 15.2145C25.8633 15.2145 24.8831 15.073 24.0545 14.5918C23.2234 14.1081 22.6701 13.3593 22.4074 12.3635C22.0411 10.9741 22.4023 9.26557 23.2865 8.21061C23.9888 7.3718 24.9437 6.99356 26.0477 7.11192C27.907 7.31262 28.7331 8.54768 29.5314 9.74158C30.4155 11.0641 31.2517 12.3146 33.5253 12.3146V13.0891C30.85 13.0891 29.8168 11.5427 28.9023 10.1764C28.1369 9.03142 27.475 8.04336 25.9668 7.88126C25.1256 7.78863 24.3981 8.07939 23.865 8.71236C23.1451 9.56919 22.8419 11.0204 23.1425 12.1603C23.3522 12.9605 23.7741 13.5343 24.4309 13.9151C26.1311 14.9031 28.7735 14.1801 28.7987 14.1724L29.0034 14.9186C28.9326 14.9392 27.9398 15.2119 26.7323 15.2119" fill="#CEB888"/>
<path d="M32.7901 19.8615L32.5905 19.6196C32.3934 19.3443 31.2491 18.1993 29.6247 18.0346C28.455 17.9188 27.3233 18.3511 26.2724 19.3314L26.0703 19.5192L25.8303 19.3829L25.5474 19.2671L25.6282 18.9763L26.2774 14.7771L27.0303 14.898L26.5301 18.1298C27.5279 17.4376 28.5915 17.1469 29.698 17.2601C30.8651 17.3785 31.8604 17.942 32.5096 18.4669L32.2419 15.302L32.9997 15.2351L33.3711 19.6042L32.7875 19.8563L32.7901 19.8615Z" fill="#CEB888"/>
<path d="M11.2188 27.1896C11.1178 27.1047 1.06339 18.5415 6.95202 5.51929L7.64421 5.84349C2.00567 18.3099 11.3022 26.2555 11.7013 26.5875L11.2188 27.187V27.1896Z" fill="#CEB888"/>
<path d="M7.06055 10.5572L7.14896 9.97822C7.29549 9.00561 7.72747 8.09732 8.39439 7.35113C9.06132 6.60494 9.91013 6.08261 10.8448 5.84075L11.4006 5.69666L11.3147 6.27302C11.1682 7.24306 10.7387 8.15135 10.0693 8.90011C9.39983 9.64887 8.55355 10.1712 7.61884 10.4105L7.06307 10.5546L7.06055 10.5572ZM10.4078 6.81079C9.86466 7.05008 9.36952 7.41288 8.95522 7.87603C8.54092 8.33918 8.23524 8.87438 8.05083 9.44817C8.59397 9.20888 9.08911 8.84608 9.50341 8.38293C9.91771 7.91978 10.2234 7.38458 10.4078 6.81079Z" fill="#CEB888"/>
<path d="M6.44727 15.0549L6.50032 14.4734C6.58873 13.4957 6.96514 12.5616 7.58659 11.7743C8.20805 10.9869 9.02402 10.4131 9.94356 10.1172L10.4892 9.9397L10.4362 10.5212C10.3478 11.499 9.97135 12.433 9.3499 13.2203C8.72592 14.0077 7.91248 14.5815 6.99546 14.88L6.44979 15.0575L6.44727 15.0549ZM8.18026 12.2606C7.79374 12.7495 7.52091 13.3027 7.37186 13.8868C7.89985 13.614 8.37225 13.2229 8.75876 12.734C9.14527 12.2452 9.41811 11.6919 9.56715 11.1079C9.03917 11.3806 8.56677 11.7717 8.18026 12.2606Z" fill="#CEB888"/>
<path d="M7.2251 18.7139L7.27057 18.1504C7.35646 17.0774 7.75813 16.0637 8.43769 15.2146C9.11724 14.3654 10.009 13.7556 11.022 13.452L11.5525 13.2925L11.5071 13.856C11.4212 14.9264 11.0195 15.9427 10.3399 16.7918C9.66038 17.6409 8.7661 18.2508 7.75561 18.5544L7.2251 18.7139ZM10.6582 14.4169C10.0317 14.7077 9.47597 15.1451 9.02882 15.7034C8.58168 16.2644 8.27348 16.9076 8.12191 17.5895C8.74841 17.2987 9.30418 16.8613 9.75132 16.3004C10.1985 15.7395 10.5067 15.0988 10.6582 14.4143" fill="#CEB888"/>
<path d="M8.97068 22.311L8.94794 21.8067C8.89236 20.5793 9.22077 19.406 9.90033 18.4154C10.5799 17.4248 11.5474 16.7069 12.6969 16.3364L13.1693 16.1846L13.192 16.6889C13.2476 17.9137 12.9166 19.087 12.2371 20.0802C11.5575 21.0708 10.59 21.7913 9.44055 22.1592L8.96815 22.311H8.97068ZM12.4291 17.2678C11.6586 17.6152 11.0068 18.1581 10.5268 18.858C10.0443 19.5604 9.76896 20.3709 9.71339 21.2252C10.4839 20.8778 11.1331 20.3349 11.6156 19.6325C12.0981 18.93 12.3735 18.1195 12.4291 17.2653" fill="#CEB888"/>
<path d="M4.97181 23.6591C4.36552 23.6591 3.76428 23.5536 3.18324 23.3401C2.06665 22.9335 1.13195 22.1693 0.480182 21.135L0.212402 20.7104L0.68228 20.556C1.83171 20.1778 3.02914 20.1958 4.14574 20.6049C5.26233 21.0114 6.19956 21.7731 6.85132 22.8074L7.1191 23.232L6.6467 23.3864C6.09598 23.5665 5.53263 23.6565 4.97434 23.6565M3.44092 22.6093C4.23163 22.8975 5.07286 22.9567 5.89641 22.7869C5.3659 22.1204 4.6813 21.6238 3.88806 21.3357C3.09483 21.0475 2.25612 20.9857 1.43257 21.1581C1.96308 21.8245 2.65021 22.3211 3.44092 22.6119" fill="#CEB888"/>
<path d="M5.48191 20.0364L4.92109 19.9463C3.78934 19.7662 2.73338 19.2413 1.86688 18.4308C1.00291 17.6203 0.40167 16.591 0.13389 15.4538L0 14.8903L0.563348 14.9803C1.6951 15.1604 2.75106 15.6853 3.61503 16.4984C4.48152 17.3115 5.08024 18.3407 5.35055 19.4729L5.48444 20.0364H5.48191ZM1.06101 15.886C1.3389 16.6296 1.78857 17.3038 2.38476 17.8596C2.98095 18.4179 3.67566 18.8193 4.42595 19.0406C4.14806 18.2996 3.69839 17.6254 3.10221 17.0671C2.50854 16.5087 1.8113 16.1073 1.06101 15.886Z" fill="#CEB888"/>
<path d="M4.39819 15.6389L3.87526 15.4099C2.9254 14.9931 2.11701 14.2906 1.54103 13.3823C0.965048 12.4741 0.66948 11.4345 0.684637 10.3822L0.694742 9.80322L1.21767 10.0322C2.16753 10.4491 2.9734 11.1489 3.5519 12.0598C4.13041 12.9707 4.42598 14.0076 4.40829 15.0626L4.39819 15.6415V15.6389ZM2.18016 12.9604C2.55404 13.5496 3.04161 14.0385 3.61001 14.3961C3.52411 13.7246 3.28665 13.071 2.91277 12.4792C2.53889 11.8874 2.05132 11.4011 1.48292 11.0434C1.56882 11.715 1.80628 12.3686 2.18016 12.9604Z" fill="#CEB888"/>
<path d="M4.18875 11.1567L3.75676 10.7811C2.97111 10.0966 2.40271 9.18321 2.11472 8.14112C1.82673 7.09903 1.84694 6.01835 2.16777 5.01743L2.3446 4.4668L2.77659 4.84246C3.56225 5.5269 4.13065 6.44033 4.41611 7.48242C4.7041 8.52451 4.68642 9.60519 4.36559 10.6061L4.18875 11.1567ZM2.84732 7.93013C3.03426 8.60684 3.35762 9.21923 3.79718 9.73127C3.91086 9.06227 3.87297 8.36755 3.68603 7.69084C3.49909 7.01412 3.17573 6.39916 2.7387 5.8897C2.62502 6.55869 2.66291 7.25342 2.84985 7.93013" fill="#CEB888"/>
<path d="M5.04716 7.22517L4.80465 6.70027C4.36256 5.74567 4.21098 4.67785 4.36761 3.60746C4.52423 2.53706 4.97643 1.5593 5.67114 0.779666L6.0526 0.352539L6.29512 0.87487C6.73721 1.8269 6.88878 2.89729 6.73215 3.96768C6.57553 5.03807 6.12333 6.01841 5.42862 6.79805L5.04716 7.22775V7.22517ZM5.12042 3.72324C5.01937 4.41797 5.06737 5.11269 5.26189 5.76368C5.63325 5.20018 5.87829 4.55177 5.98187 3.85447C6.08291 3.15974 6.03492 2.46502 5.8404 1.81661C5.46904 2.38011 5.22147 3.02852 5.12042 3.72324Z" fill="#CEB888"/>
<path d="M6.69727 6.29621L6.88926 5.68383C7.26567 4.48736 7.98059 3.39123 8.96329 2.51897C9.94346 1.64413 11.1055 1.06776 12.3206 0.849054L12.9421 0.73584L12.7501 1.34823C12.3762 2.5447 11.6588 3.63825 10.6761 4.51309C9.69337 5.38793 8.53383 5.96686 7.32124 6.18557L6.69979 6.29879L6.69727 6.29621ZM11.7649 1.7805C10.9363 2.04038 10.1506 2.49066 9.46096 3.10305C8.7713 3.71801 8.22816 4.45133 7.86691 5.25413C8.69551 4.99425 9.48117 4.54396 10.1708 3.929C10.8605 3.31404 11.4036 2.58072 11.7649 1.7805Z" fill="#CEB888"/>
<path d="M48.5216 27.2615L48.0391 26.6619C48.4382 26.33 57.7347 18.3844 52.0962 5.91796L52.7884 5.59375C58.677 18.616 48.6226 27.1791 48.5216 27.264" fill="#CEB888"/>
<path d="M52.6823 10.6266L52.1266 10.4825C51.1919 10.2432 50.3456 9.72089 49.6761 8.97213C49.0092 8.22337 48.5772 7.31508 48.4307 6.34504L48.3423 5.76868L48.8981 5.91019C49.8328 6.14949 50.6816 6.67182 51.3485 7.41801C52.0154 8.16677 52.4474 9.07505 52.5939 10.0451L52.6823 10.624V10.6266ZM49.3351 6.88024C49.5195 7.45403 49.8252 7.98922 50.2395 8.45237C50.6538 8.91552 51.1489 9.27833 51.6921 9.51762C51.5076 8.94383 51.202 8.40863 50.7877 7.94548C50.3734 7.48233 49.8782 7.11953 49.3351 6.88024Z" fill="#CEB888"/>
<path d="M53.2929 15.127L52.7447 14.9494C51.8277 14.6509 51.0118 14.0797 50.3903 13.2898C49.7689 12.4999 49.3924 11.5684 49.304 10.5907L49.251 10.0092L49.7992 10.1867C50.7187 10.4852 51.5322 11.059 52.1536 11.8463C52.7751 12.6337 53.1515 13.5677 53.2399 14.5455L53.2929 15.127ZM50.1756 11.1799C50.3246 11.764 50.5975 12.3172 50.984 12.8061C51.3705 13.2949 51.8429 13.6861 52.3709 13.9588C52.2218 13.3747 51.949 12.8215 51.5625 12.3326C51.176 11.8437 50.7036 11.4526 50.1756 11.1799Z" fill="#CEB888"/>
<path d="M52.5174 18.7834L51.9869 18.6238C50.9738 18.3202 50.0796 17.713 49.4025 16.8613C48.723 16.0122 48.3188 14.9958 48.2354 13.9254L48.1899 13.3645L48.7205 13.524C49.7335 13.8251 50.6277 14.4349 51.3048 15.284C51.9843 16.1331 52.3885 17.1495 52.4719 18.2199L52.5174 18.7834ZM49.0842 14.4864C49.2358 15.1708 49.544 15.8115 49.9911 16.3724C50.4383 16.9333 50.9941 17.3708 51.6206 17.6615C51.469 16.9771 51.1608 16.3338 50.7136 15.7755C50.2665 15.2145 49.7107 14.7771 49.0842 14.4889" fill="#CEB888"/>
<path d="M50.7699 22.3804L50.2975 22.2285C49.1481 21.8606 48.1805 21.1401 47.501 20.1495C46.8214 19.1589 46.4905 17.9856 46.546 16.7582L46.5688 16.2539L47.0412 16.4057C48.1931 16.7762 49.1607 17.4941 49.8377 18.4847C50.5173 19.4754 50.8457 20.6487 50.7901 21.876L50.7674 22.3804H50.7699ZM47.3115 17.3372C47.3671 18.1914 47.6424 19.0019 48.1249 19.7044C48.6074 20.4068 49.2567 20.9497 50.0272 21.2971C49.9716 20.4403 49.6962 19.6323 49.2163 18.9299C48.7363 18.2274 48.0845 17.6845 47.314 17.3372" fill="#CEB888"/>
<path d="M54.7716 23.7288C54.2133 23.7288 53.65 23.6387 53.0993 23.4586L52.6294 23.3042L52.8972 22.8797C53.5489 21.8453 54.4836 21.0837 55.6002 20.6771C56.7168 20.268 57.9143 20.2526 59.0637 20.6283L59.5336 20.7826L59.2658 21.2072C58.6115 22.2416 57.6793 23.0032 56.5627 23.4123C55.9817 23.6233 55.3805 23.7314 54.7742 23.7314M53.8496 22.8617C54.6756 23.0315 55.5143 22.9723 56.3076 22.6841C57.0983 22.3959 57.7829 21.8968 58.3159 21.2303C57.4899 21.0605 56.6511 21.1197 55.8604 21.4079C55.0697 21.6961 54.3826 22.1952 53.8521 22.8591" fill="#CEB888"/>
<path d="M54.2578 20.1058L54.3917 19.5423C54.6595 18.4076 55.2607 17.3784 56.1272 16.5653C56.9937 15.7522 58.0497 15.2273 59.1789 15.0498L59.7397 14.9597L59.6058 15.5232C59.338 16.6579 58.7393 17.6872 57.8728 18.5002C57.0089 19.3133 55.9529 19.8357 54.8186 20.0158L54.2578 20.1058ZM58.6812 15.9555C57.9335 16.1768 57.2362 16.5782 56.6426 17.1365C56.0489 17.6949 55.5967 18.369 55.3188 19.1101C56.0691 18.8888 56.7664 18.4874 57.36 17.929C57.9537 17.3707 58.4033 16.6965 58.6812 15.9555Z" fill="#CEB888"/>
<path d="M55.3417 15.7061L55.3316 15.1271C55.3165 14.0747 55.612 13.0352 56.188 12.1269C56.7665 11.2186 57.5724 10.5162 58.5222 10.0994L59.0452 9.87036L59.0553 10.4493C59.0729 11.5043 58.7774 12.5412 58.1989 13.4495C57.6229 14.3578 56.8145 15.0602 55.8646 15.4771L55.3417 15.7061ZM58.257 11.1106C57.6911 11.4682 57.2035 11.9545 56.8271 12.5463C56.4533 13.1381 56.2158 13.7891 56.1274 14.4633C56.6958 14.1056 57.1808 13.6193 57.5572 13.0275C57.9311 12.4357 58.1686 11.7847 58.2545 11.1106" fill="#CEB888"/>
<path d="M55.5517 11.2263L55.3749 10.6757C55.0541 9.67477 55.0364 8.59409 55.3244 7.552C55.6124 6.50991 56.1782 5.59648 56.9639 4.91204L57.3959 4.53638L57.5727 5.08701C57.8961 6.0905 57.9137 7.16861 57.6258 8.2107C57.3403 9.25279 56.7719 10.1662 55.9837 10.8507L55.5517 11.2263ZM57.0043 5.95928C56.5673 6.47132 56.2439 7.0837 56.057 7.76042C55.87 8.43713 55.8347 9.13186 55.9458 9.80085C56.3854 9.28881 56.7087 8.67642 56.8957 7.99971C57.0826 7.323 57.118 6.62827 57.0068 5.95928" fill="#CEB888"/>
<path d="M54.6926 7.29451L54.3112 6.86481C53.6164 6.08517 53.1643 5.10741 53.0076 4.03702C52.851 2.96405 53 1.89624 53.4447 0.944205L53.6872 0.421875L54.0686 0.851575C54.7659 1.63121 55.2155 2.61155 55.3722 3.67936C55.5288 4.74976 55.3772 5.82015 54.9351 6.77218L54.6926 7.29451ZM53.8994 1.88337C53.7049 2.53178 53.6569 3.22651 53.7579 3.92123C53.859 4.61596 54.1065 5.26694 54.4779 5.82787C54.6724 5.17946 54.7204 4.48473 54.6194 3.79001C54.5183 3.09528 54.2707 2.44687 53.8994 1.88337Z" fill="#CEB888"/>
<path d="M53.046 6.36568L52.4246 6.25247C51.2094 6.03376 50.0499 5.45482 49.0672 4.57998C48.087 3.70514 47.3696 2.61159 46.9957 1.41512L46.8037 0.802734L47.4252 0.915949C48.6403 1.13466 49.7998 1.7136 50.7825 2.58586C51.7627 3.4607 52.4801 4.55425 52.8565 5.75072L53.0485 6.36311L53.046 6.36568ZM47.9759 1.8474C48.3371 2.64762 48.8803 3.38351 49.5699 3.9959C50.2596 4.61086 51.0452 5.06114 51.8738 5.32102C51.5126 4.51823 50.9695 3.78491 50.2798 3.16995C49.5901 2.55499 48.8045 2.10727 47.9759 1.8474Z" fill="#CEB888"/>
</svg>
