<svg width="109" height="50" viewBox="0 0 109 50" fill="none" xmlns="http://www.w3.org/2000/svg">
<path d="M54.5026 50C40.6724 50 29.4226 38.7861 29.4226 25C29.4226 11.2139 40.6724 0 54.5026 0C68.3327 0 79.5825 11.2139 79.5825 25C79.5825 38.7861 68.3327 50 54.5026 50ZM54.5026 1.38397C41.4392 1.38397 30.811 11.9783 30.811 25C30.811 38.0217 41.4392 48.616 54.5026 48.616C67.5659 48.616 78.1941 38.0217 78.1941 25C78.1941 11.9783 67.5659 1.38397 54.5026 1.38397Z" fill="#CEB888"/>
<path d="M59.5155 30.5681L59.1388 29.2351C59.2033 29.2163 65.6852 27.3549 66.9875 23.8279C67.4422 22.5968 67.2001 21.3121 66.2503 19.9013C63.5542 15.8969 58.0221 18.8151 57.9656 18.8472L57.3064 17.6296C59.615 16.3877 64.6923 15.1003 67.4046 19.1315C68.6046 20.9125 68.9006 22.6558 68.2898 24.3107C66.7427 28.5002 59.8087 30.4876 59.5155 30.5708" fill="#CEB888"/>
<path d="M48.7742 27.1671C47.1894 27.1671 45.4001 26.9123 43.8906 26.054C42.3731 25.1904 41.3641 23.852 40.8851 22.0738C40.2151 19.5928 40.8771 16.5433 42.4915 14.6604C43.7749 13.1638 45.5158 12.4879 47.5285 12.6971C50.9187 13.0538 52.4282 15.2612 53.8866 17.3935C55.501 19.7564 57.0266 21.988 61.173 21.988V23.3719C56.292 23.3719 54.4059 20.6093 52.7376 18.174C51.3412 16.1302 50.1357 14.3654 47.3832 14.0757C45.8468 13.9094 44.5203 14.4271 43.5489 15.5616C42.2359 17.0931 41.6816 19.684 42.2305 21.7171C42.6152 23.1439 43.3821 24.1685 44.5795 24.8525C47.6818 26.62 52.5035 25.3245 52.5493 25.3111L52.9206 26.6441C52.7914 26.679 50.9806 27.1698 48.7769 27.1698" fill="#CEB888"/>
<path d="M59.8275 35.4656L59.4643 35.0337C59.1064 34.5429 57.0184 32.4992 54.056 32.2041C51.9223 31.9976 49.8585 32.77 47.94 34.5188L47.5714 34.8567L47.1328 34.6153L46.6189 34.4115L46.7669 33.8939L47.9535 26.3973L49.3257 26.6146L48.4136 32.3838C50.2352 31.15 52.1752 30.6297 54.1959 30.8309C56.3242 31.0428 58.1404 32.0512 59.327 32.9846L58.8373 27.3334L60.2204 27.2154L60.8984 35.0177L59.8302 35.4683L59.8275 35.4656Z" fill="#CEB888"/>
<path d="M20.4708 48.5544C20.2851 48.4042 1.94269 33.1134 12.6839 9.8595L13.9459 10.4388C3.65935 32.7004 20.6215 46.8888 21.348 47.4815L20.4681 48.5544H20.4708Z" fill="#CEB888"/>
<path d="M12.8831 18.8499L13.0418 17.8173C13.3082 16.0819 14.0939 14.4592 15.3128 13.1262C16.5316 11.7905 18.0761 10.8598 19.782 10.4307L20.7964 10.1759L20.6376 11.2058C20.3713 12.9385 19.5856 14.5612 18.3667 15.8969C17.1478 17.2325 15.6007 18.1659 13.8974 18.5924L12.8831 18.8472V18.8499ZM18.9909 12.158C17.9981 12.5871 17.0967 13.2308 16.3406 14.0596C15.5845 14.8857 15.0248 15.8432 14.6912 16.8678C15.6841 16.4386 16.5855 15.7949 17.3415 14.9662C18.0976 14.1374 18.6573 13.1826 18.9909 12.158Z" fill="#CEB888"/>
<path d="M11.7637 26.8828L11.8605 25.8449C12.022 24.0988 12.7081 22.4332 13.8409 21.0251C14.9764 19.617 16.4616 18.5951 18.1406 18.064L19.1389 17.7476L19.042 18.7855C18.8806 20.5316 18.1944 22.1972 17.059 23.6053C15.9235 25.0134 14.4382 26.038 12.7619 26.5664L11.7637 26.8828ZM14.9225 21.8914C14.2176 22.7631 13.7198 23.7528 13.448 24.7962C14.4113 24.3107 15.2723 23.6107 15.9773 22.739C16.6823 21.8673 17.1827 20.8776 17.4518 19.8369C16.4885 20.3251 15.6275 21.0224 14.9225 21.8941" fill="#CEB888"/>
<path d="M13.1816 33.4165L13.2651 32.4133C13.4184 30.4983 14.1557 28.6852 15.3934 27.1698C16.6311 25.6544 18.2617 24.5655 20.1102 24.0237L21.0815 23.7394L20.9981 24.7425C20.8447 26.6548 20.1075 28.468 18.8671 29.986C17.6267 31.5041 15.9961 32.593 14.1503 33.1321L13.179 33.4165H13.1816ZM19.4456 25.7429C18.302 26.2606 17.2876 27.0437 16.4724 28.0415C15.6571 29.0419 15.0947 30.1899 14.8176 31.4102C15.9611 30.8926 16.9728 30.1094 17.7908 29.109C18.6061 28.1085 19.1684 26.9606 19.4456 25.7402" fill="#CEB888"/>
<path d="M16.3701 39.8401L16.3298 38.9416C16.2275 36.7477 16.8302 34.6556 18.0679 32.8854C19.3057 31.1179 21.0734 29.8358 23.1722 29.176L24.0332 28.9052L24.0736 29.8037C24.1758 31.9923 23.5731 34.087 22.3327 35.8572C21.0923 37.6274 19.3272 38.9094 17.2284 39.5692L16.3674 39.8401H16.3701ZM22.6798 30.8363C21.2752 31.4558 20.086 32.4241 19.2088 33.6766C18.3289 34.9292 17.8258 36.3775 17.7262 37.9063C19.1308 37.2868 20.3174 36.3185 21.1972 35.0633C22.0771 33.8081 22.5802 32.3624 22.6798 30.8363Z" fill="#CEB888"/>
<path d="M9.07032 42.2487C7.96444 42.2487 6.86395 42.0582 5.80651 41.68C3.76965 40.9505 2.06375 39.5907 0.874467 37.7454L0.387451 36.989L1.24578 36.7128C3.34452 36.0396 5.52668 36.0691 7.56353 36.7986C9.60308 37.5254 11.309 38.888 12.4983 40.7333L12.9853 41.4896L12.1243 41.7659C11.1179 42.0877 10.0928 42.2487 9.07032 42.2487ZM6.27469 40.3765C7.7169 40.8915 9.2506 40.9961 10.7574 40.693C9.78874 39.5048 8.53756 38.6171 7.09266 38.1021C5.64776 37.5845 4.11675 37.4772 2.61265 37.7856C3.5813 38.9738 4.83248 39.8643 6.27469 40.3792" fill="#CEB888"/>
<path d="M10.004 35.7767L8.97884 35.6185C6.91508 35.2966 4.98586 34.3605 3.40642 32.9095C1.82698 31.4612 0.734559 29.6239 0.242162 27.5936L0 26.5905L1.02515 26.7487C3.08892 27.0706 5.01545 28.0066 6.59489 29.4576C8.17702 30.9087 9.26944 32.7459 9.75914 34.7709L10.0013 35.7767H10.004ZM1.93461 28.366C2.44315 29.6937 3.26381 30.8979 4.34816 31.893C5.4352 32.8907 6.70521 33.6069 8.07208 34.0038C7.56354 32.6789 6.74288 31.4746 5.65853 30.4795C4.57418 29.4818 3.30417 28.7656 1.9373 28.3687" fill="#CEB888"/>
<path d="M8.0236 27.9236L7.07109 27.5132C5.33829 26.7676 3.86379 25.515 2.81172 23.8923C1.75966 22.267 1.21883 20.4163 1.25112 18.5335L1.26727 17.5009L2.21977 17.9112C3.94989 18.6542 5.42439 19.9067 6.47914 21.5321C7.5312 23.1601 8.07203 25.0108 8.04243 26.8909L8.02629 27.9236H8.0236ZM3.97679 23.1413C4.66023 24.1954 5.55085 25.0671 6.58408 25.7054C6.42802 24.5039 5.99481 23.3398 5.31138 22.2831C4.62794 21.2263 3.73732 20.3573 2.7041 19.719C2.86016 20.9206 3.29336 22.0846 3.97679 23.1413Z" fill="#CEB888"/>
<path d="M7.64433 19.9228L6.85596 19.2523C5.41913 18.0293 4.38321 16.3985 3.85852 14.5371C3.33384 12.6758 3.36882 10.7473 3.95539 8.95834L4.27827 7.97668L5.06665 8.64721C6.50079 9.87026 7.5367 11.4983 8.06139 13.3624C8.58607 15.2238 8.55379 17.1522 7.96721 18.9412L7.64433 19.9255V19.9228ZM5.1958 14.1616C5.53752 15.3713 6.12678 16.4656 6.92592 17.3775C7.13041 16.1813 7.06314 14.9421 6.72411 13.7325C6.3824 12.5229 5.79313 11.4286 4.994 10.5166C4.78681 11.7102 4.85408 12.952 5.1958 14.1616Z" fill="#CEB888"/>
<path d="M9.21022 12.9036L8.76626 11.9676C7.95905 10.2644 7.6846 8.35474 7.96981 6.44508C8.25772 4.53273 9.08107 2.78667 10.3511 1.39465L11.048 0.630249L11.4919 1.56363C12.2991 3.26409 12.5736 5.17375 12.2884 7.0861C12.0005 8.99845 11.1798 10.7472 9.9098 12.1392L9.21291 12.9036H9.21022ZM9.34476 6.64892C9.1591 7.89074 9.24789 9.12987 9.60037 10.2912C10.2784 9.28544 10.7278 8.12676 10.9134 6.88226C11.0991 5.64044 11.0103 4.4013 10.6578 3.23995C9.97976 4.24574 9.53041 5.40441 9.34476 6.64623" fill="#CEB888"/>
<path d="M12.2185 11.2434L12.5683 10.1518C13.2544 8.01414 14.5621 6.05887 16.3514 4.50057C18.1407 2.93957 20.2583 1.90964 22.4754 1.51805L23.6082 1.31689L23.2584 2.40852C22.575 4.54348 21.2646 6.49874 19.4753 8.05973C17.6833 9.62072 15.5684 10.6533 13.3513 11.0449L12.2185 11.2461V11.2434ZM21.4664 3.17828C19.9542 3.63961 18.5201 4.44424 17.2636 5.54123C16.007 6.63821 15.0168 7.94708 14.3549 9.37933C15.8671 8.91801 17.3012 8.11338 18.5578 7.01639C19.817 5.9194 20.8072 4.61053 21.4664 3.17828Z" fill="#CEB888"/>
<path d="M88.532 48.6777L87.6521 47.6048C88.3786 47.0121 105.341 32.8237 95.0542 10.5621L96.3161 9.98279C107.06 33.2341 88.7149 48.5248 88.5293 48.6777" fill="#CEB888"/>
<path d="M96.1223 18.976L95.1079 18.7212C93.4047 18.292 91.8576 17.3613 90.6387 16.0256C89.4198 14.6899 88.6341 13.0673 88.3677 11.3373L88.209 10.3074L89.2234 10.5622C90.9293 10.9886 92.4764 11.922 93.6953 13.2577C94.9142 14.5934 95.6999 16.2134 95.9663 17.9487L96.125 18.9813L96.1223 18.976ZM90.0144 12.2841C90.3481 13.3087 90.9078 14.2635 91.6638 15.0923C92.4199 15.921 93.3213 16.5647 94.3142 16.9939C93.9805 15.9693 93.4209 15.0118 92.6648 14.1857C91.9087 13.3569 91.0073 12.7132 90.0144 12.2841Z" fill="#CEB888"/>
<path d="M97.239 27.0116L96.2407 26.6951C94.5671 26.1641 93.0791 25.1395 91.9437 23.7341C90.8082 22.326 90.1221 20.6604 89.9606 18.9143L89.8638 17.8763L90.862 18.1928C92.5383 18.7239 94.0263 19.7485 95.1591 21.1539C96.2945 22.5593 96.978 24.2249 97.1421 25.9736L97.239 27.0116ZM91.5508 19.963C91.8226 21.0064 92.3231 21.9934 93.0253 22.8651C93.7303 23.7368 94.5913 24.4341 95.5546 24.9223C95.2828 23.8789 94.7824 22.8892 94.0801 22.0175C93.3778 21.1458 92.5141 20.4485 91.5508 19.9603" fill="#CEB888"/>
<path d="M95.821 33.5399L94.8524 33.2556C93.0065 32.7138 91.3733 31.6275 90.1356 30.1094C88.8979 28.5914 88.1606 26.7783 88.0046 24.8659L87.9211 23.8628L88.8898 24.1471C90.7383 24.6862 92.3689 25.7751 93.6066 27.2905C94.8443 28.8086 95.5815 30.6217 95.7376 32.5341L95.821 33.5372V33.5399ZM89.5571 25.8663C89.8315 27.0867 90.3939 28.2346 91.2119 29.2351C92.0271 30.2355 93.0415 31.0187 94.1851 31.5363C93.9106 30.316 93.3483 29.1653 92.5303 28.1676C91.715 27.1672 90.7006 26.3867 89.5571 25.869" fill="#CEB888"/>
<path d="M92.6352 39.9636L91.7742 39.6927C89.6755 39.0329 87.9104 37.7508 86.67 35.9806C85.4296 34.2104 84.8295 32.1157 84.9291 29.9271L84.9695 29.0286L85.8305 29.2995C87.9319 29.9593 89.697 31.2413 90.9347 33.0115C92.1751 34.779 92.7752 36.8738 92.6729 39.065L92.6326 39.9636H92.6352ZM86.3256 30.9597C86.4251 32.4885 86.931 33.9315 87.8081 35.1867C88.688 36.4419 89.8746 37.4102 91.2791 38.0297C91.1796 36.5009 90.6764 35.0553 89.7966 33.8027C88.9194 32.5502 87.7301 31.5793 86.3256 30.9597Z" fill="#CEB888"/>
<path d="M99.9323 42.3721C98.9125 42.3721 97.8847 42.2111 96.8784 41.8893L96.02 41.613L96.507 40.8567C97.6963 39.0114 99.4022 37.6515 101.442 36.922C103.479 36.1925 105.663 36.163 107.76 36.8362L108.618 37.1124L108.131 37.8688C106.939 39.7168 105.233 41.0766 103.199 41.8035C102.139 42.1816 101.041 42.3721 99.9323 42.3721ZM98.2479 40.8164C99.7547 41.1222 101.286 41.0149 102.731 40.4999C104.173 39.985 105.424 39.0945 106.393 37.9063C104.889 37.6006 103.358 37.7079 101.91 38.2228C100.465 38.7405 99.2139 39.6283 98.2452 40.8164" fill="#CEB888"/>
<path d="M98.9988 35.9028L99.2409 34.897C99.7306 32.872 100.826 31.0348 102.405 29.5837C103.985 28.1327 105.911 27.1967 107.975 26.8748L109 26.7166L108.758 27.7223C108.268 29.7473 107.176 31.5873 105.596 33.0383C104.017 34.4893 102.09 35.4254 100.024 35.7472L98.9988 35.9055V35.9028ZM107.068 28.4921C105.701 28.8891 104.434 29.6052 103.347 30.6029C102.263 31.6007 101.439 32.8023 100.931 34.1299C102.3 33.733 103.57 33.0168 104.655 32.0191C105.739 31.024 106.56 29.8198 107.068 28.4921Z" fill="#CEB888"/>
<path d="M100.976 28.0468L100.96 27.0142C100.931 25.1341 101.471 23.2807 102.523 21.6554C103.575 20.03 105.05 18.7775 106.783 18.0345L107.735 17.6241L107.751 18.6568C107.781 20.5396 107.243 22.3903 106.188 24.0156C105.136 25.6383 103.662 26.8909 101.929 27.6365L100.976 28.0468ZM106.296 19.8423C105.263 20.4806 104.375 21.3523 103.688 22.4064C103.005 23.4604 102.572 24.6272 102.413 25.8287C103.449 25.1904 104.337 24.3187 105.02 23.2646C105.704 22.2106 106.137 21.0438 106.293 19.8423" fill="#CEB888"/>
<path d="M101.361 20.0461L101.038 19.0645C100.452 17.2755 100.419 15.3471 100.944 13.4857C101.469 11.6243 102.502 9.99355 103.939 8.7705L104.727 8.09998L105.05 9.08163C105.637 10.8706 105.669 12.799 105.147 14.6604C104.625 16.5218 103.589 18.1499 102.152 19.3756L101.364 20.0461H101.361ZM104.011 10.6426C103.212 11.5572 102.623 12.6488 102.281 13.8585C101.94 15.0681 101.872 16.3099 102.077 17.5035C102.876 16.5889 103.468 15.4946 103.807 14.2876C104.146 13.078 104.213 11.8388 104.009 10.6426" fill="#CEB888"/>
<path d="M99.7925 13.027L99.0956 12.2626C97.8256 10.8706 97.0023 9.12455 96.7171 7.2122C96.4291 5.29717 96.7063 3.3875 97.5135 1.68972L97.9575 0.756348L98.6543 1.52075C99.9244 2.91545 100.748 4.66151 101.036 6.57117C101.321 8.48352 101.046 10.3932 100.239 12.0936L99.7952 13.027H99.7925ZM98.3476 3.36605C97.9951 4.52472 97.9063 5.76386 98.092 7.00836C98.2777 8.25018 98.727 9.40885 99.4051 10.4146C99.7575 9.25597 99.849 8.01683 99.6607 6.77233C99.475 5.53051 99.0257 4.37184 98.3476 3.36605Z" fill="#CEB888"/>
<path d="M96.7869 11.3695L95.6541 11.1683C93.4397 10.7768 91.3221 9.74414 89.5301 8.18315C87.7408 6.62215 86.4304 4.66689 85.747 2.53193L85.3972 1.44031L86.53 1.64147C88.7471 2.03306 90.8647 3.06567 92.654 4.62398C94.4433 6.18497 95.751 8.14023 96.4371 10.2779L96.7869 11.3722V11.3695ZM87.5363 3.30438C88.1982 4.73663 89.1884 6.0455 90.445 7.14248C91.7015 8.23947 93.1383 9.0441 94.6478 9.50543C93.9859 8.07318 92.9957 6.76162 91.7392 5.66732C90.4826 4.57034 89.0485 3.76838 87.5336 3.30438" fill="#CEB888"/>
</svg>
