<svg width="43" height="22" viewBox="0 0 43 22" fill="none" xmlns="http://www.w3.org/2000/svg">
<path d="M43.0001 18.3148L42.0374 19.1018C41.5055 18.452 28.7741 3.28026 8.79865 12.481L8.27881 11.3523C29.1424 1.74239 42.8629 18.1512 43.0001 18.3172" fill="#CEB888"/>
<path d="M16.3482 11.5257L16.1196 12.433C15.7345 13.9564 14.8994 15.3403 13.7009 16.4305C12.5023 17.5208 11.0463 18.2235 9.49399 18.4618L8.56982 18.6038L8.79846 17.6964C9.18112 16.1706 10.0186 14.7868 11.2172 13.6965C12.4157 12.6063 13.8693 11.9035 15.4265 11.6653L16.353 11.5233L16.3482 11.5257ZM10.3436 16.9889C11.2629 16.6904 12.1197 16.1898 12.8634 15.5136C13.607 14.8373 14.1846 14.0311 14.5697 13.143C13.6503 13.4414 12.7912 13.942 12.0499 14.6183C11.3062 15.2946 10.7286 16.1008 10.3436 16.9889Z" fill="#CEB888"/>
<path d="M23.559 10.5268L23.275 11.4197C22.7985 12.9167 21.8791 14.2476 20.618 15.2632C19.3545 16.2788 17.86 16.8925 16.2932 17.0369L15.3618 17.1235L15.6458 16.2307C16.1223 14.7313 17.0417 13.4004 18.3028 12.3872C19.5639 11.3716 21.0584 10.7603 22.6276 10.6135L23.559 10.5268V10.5268ZM17.2342 15.6145C18.1704 15.3715 19.0561 14.9238 19.8383 14.2957C20.6204 13.6651 21.2462 12.895 21.6842 12.0334C20.748 12.2765 19.8599 12.7241 19.0777 13.3523C18.2956 13.9804 17.6698 14.753 17.2318 15.6145" fill="#CEB888"/>
<path d="M29.4167 11.7953L29.1616 12.6617C28.6755 14.3127 27.7008 15.7736 26.3386 16.8806C24.9764 17.9877 23.3495 18.6471 21.6335 18.7867L20.7334 18.8613L20.9885 17.9949C21.4723 16.3415 22.4494 14.8831 23.8091 13.776C25.1713 12.6689 26.7982 12.0095 28.5142 11.8699L29.4143 11.7953L29.4167 11.7953ZM22.5312 17.3981C23.6262 17.1526 24.6563 16.6496 25.554 15.918C26.4517 15.1887 27.1544 14.2814 27.6189 13.2586C26.5239 13.504 25.4914 14.007 24.5961 14.7387C23.6984 15.4679 22.9981 16.3752 22.5336 17.3981" fill="#CEB888"/>
<path d="M35.1812 14.6449L34.9381 15.415C34.3461 17.2922 33.1957 18.871 31.6073 19.9805C30.0189 21.09 28.1392 21.6266 26.1754 21.5376L25.3691 21.5015L25.6122 20.7314C26.2043 18.8517 27.3547 17.273 28.9431 16.1659C30.5291 15.0564 32.4087 14.5197 34.375 14.6112L35.1812 14.6473L35.1812 14.6449ZM27.102 20.2885C28.4738 20.1995 29.7686 19.747 30.8949 18.9624C32.0212 18.1755 32.89 17.1141 33.446 15.8578C32.0742 15.9469 30.777 16.3969 29.653 17.1839C28.5291 17.9685 27.6579 19.0322 27.102 20.2885" fill="#CEB888"/>
<path d="M37.3421 8.11811C37.3421 9.03024 37.1977 9.9496 36.9089 10.8497L36.661 11.6174L35.9824 11.1818C34.3266 10.1181 33.1064 8.59222 32.4517 6.76796C31.7971 4.94609 31.7707 2.99187 32.3747 1.11706L32.6226 0.34933L33.3013 0.784939C34.9595 1.8511 36.1797 3.37694 36.8319 5.19639C37.1713 6.14462 37.3421 7.12656 37.3421 8.11811ZM35.9463 9.62469C36.2206 8.27695 36.1243 6.90755 35.6623 5.61516C35.2002 4.32517 34.4012 3.20606 33.335 2.33966C33.0606 3.68499 33.1569 5.0544 33.619 6.34919C34.0835 7.64158 34.8801 8.76069 35.9463 9.6271" fill="#CEB888"/>
<path d="M31.5373 8.95288L30.6348 8.73628C28.8178 8.29826 27.1692 7.31874 25.8672 5.90602C24.5652 4.49329 23.7252 2.7701 23.4364 0.924175L23.2944 0.00722817L24.1969 0.223828C26.014 0.661845 27.665 1.63896 28.967 3.05168C30.269 4.46441 31.1089 6.1876 31.3977 8.03593L31.5397 8.95288L31.5373 8.95288ZM24.8877 1.73523C25.2438 2.95782 25.8864 4.09138 26.7817 5.06368C27.677 6.03357 28.7552 6.77002 29.9465 7.22488C29.5903 5.99988 28.9477 4.86392 28.0525 3.89402C27.1596 2.92413 26.079 2.19009 24.8877 1.73523Z" fill="#CEB888"/>
<path d="M24.4881 7.18424L23.5615 7.19868C21.8745 7.22515 20.2114 6.74141 18.753 5.80039C17.2945 4.85938 16.1706 3.54052 15.504 1.99061L15.1357 1.13864L16.0623 1.1242C17.7518 1.09773 19.4124 1.57907 20.8709 2.52249C22.3269 3.4635 23.4508 4.78236 24.1199 6.33227L24.4881 7.18424ZM17.1261 2.42622C17.6989 3.35039 18.481 4.1446 19.4269 4.7583C20.3727 5.3696 21.4196 5.75707 22.4978 5.89907C21.925 4.97249 21.1428 4.17829 20.197 3.56699C19.2512 2.95569 18.2043 2.56821 17.1261 2.42862" fill="#CEB888"/>
<path d="M17.3087 6.83982L16.4279 7.12862C14.8226 7.65328 13.0922 7.68216 11.422 7.21285C9.75174 6.74355 8.28848 5.81938 7.19103 4.53421L6.58936 3.82905L7.4702 3.54025C9.07546 3.01559 10.8059 2.98672 12.4761 3.45361C14.1463 3.92051 15.6072 4.84708 16.7071 6.13225L17.3087 6.83741L17.3087 6.83982ZM8.87089 4.46923C9.69157 5.18402 10.6711 5.71108 11.7565 6.01673C12.8419 6.32238 13.9562 6.38255 15.0272 6.19964C14.2065 5.48486 13.2246 4.95539 12.1416 4.65214C11.0562 4.3489 9.94427 4.28873 8.87089 4.47164" fill="#CEB888"/>
<path d="M11.0106 8.243L10.3247 8.86633C9.07561 10.0023 7.50886 10.7387 5.79289 10.9938C4.07452 11.2514 2.36096 11.0035 0.837527 10.2815L5.28213e-08 9.88436L0.685905 9.26103C1.93738 8.12508 3.50413 7.38863 5.21769 7.13112C6.93366 6.87601 8.64722 7.12149 10.1731 7.84349L11.0106 8.24059L11.0106 8.243ZM2.34171 9.53539C3.38139 9.85067 4.49328 9.93009 5.60998 9.76403C6.72428 9.59797 7.76397 9.19605 8.66647 8.58957C7.62679 8.27429 6.5149 8.19246 5.3982 8.36093C4.2839 8.52699 3.24421 8.92891 2.34171 9.53539" fill="#CEB888"/>
<path d="M9.52283 10.9314L9.34233 11.9446C8.99095 13.9253 8.06438 15.8194 6.66369 17.4222C5.263 19.0227 3.50852 20.1947 1.5928 20.806L0.613281 21.1189L0.793783 20.1057C1.14516 18.1226 2.07173 16.2285 3.47002 14.6281C4.87071 13.0276 6.62518 11.858 8.54331 11.2443L9.52524 10.9314L9.52283 10.9314ZM2.28593 19.2056C3.5711 18.6135 4.74556 17.7279 5.72989 16.604C6.71423 15.48 7.43623 14.1949 7.85018 12.8447C6.56501 13.4368 5.38815 14.3224 4.40622 15.4463C3.42188 16.5703 2.70228 17.853 2.28593 19.208" fill="#CEB888"/>
</svg>
