<svg width="43" height="22" viewBox="0 0 43 22" fill="none" xmlns="http://www.w3.org/2000/svg">
<path d="M-0.000549665 18.3148L0.962125 19.1018C1.494 18.452 14.2254 3.28026 34.2009 12.481L34.7207 11.3523C13.8571 1.74239 0.136631 18.1512 -0.000549665 18.3172" fill="#CEB888"/>
<path d="M26.6513 11.5257L26.8799 12.433C27.265 13.9564 28.1001 15.3403 29.2986 16.4305C30.4972 17.5208 31.9532 18.2235 33.5055 18.4618L34.4297 18.6038L34.2011 17.6964C33.8184 16.1706 32.9809 14.7868 31.7823 13.6965C30.5838 12.6063 29.1302 11.9035 27.573 11.6653L26.6465 11.5233L26.6513 11.5257ZM32.656 16.9889C31.7366 16.6904 30.8798 16.1898 30.1362 15.5136C29.3925 14.8373 28.8149 14.0311 28.4298 13.143C29.3492 13.4414 30.2084 13.942 30.9496 14.6183C31.6933 15.2946 32.2709 16.1008 32.656 16.9889Z" fill="#CEB888"/>
<path d="M19.4405 10.5268L19.7245 11.4197C20.201 12.9167 21.1204 14.2476 22.3815 15.2632C23.645 16.2788 25.1396 16.8925 26.7063 17.0369L27.6377 17.1235L27.3537 16.2307C26.8772 14.7313 25.9578 13.4004 24.6967 12.3872C23.4356 11.3716 21.9411 10.7603 20.3719 10.6135L19.4405 10.5268V10.5268ZM25.7653 15.6145C24.8291 15.3715 23.9434 14.9238 23.1613 14.2957C22.3791 13.6651 21.7533 12.895 21.3153 12.0334C22.2515 12.2765 23.1396 12.7241 23.9218 13.3523C24.7039 13.9804 25.3297 14.753 25.7677 15.6145" fill="#CEB888"/>
<path d="M13.5833 11.7953L13.8384 12.6617C14.3245 14.3127 15.2992 15.7736 16.6614 16.8806C18.0236 17.9877 19.6505 18.6471 21.3665 18.7867L22.2666 18.8613L22.0115 17.9949C21.5277 16.3415 20.5506 14.8831 19.1909 13.776C17.8287 12.6689 16.2018 12.0095 14.4858 11.8699L13.5857 11.7953L13.5833 11.7953ZM20.4688 17.3981C19.3738 17.1526 18.3437 16.6496 17.446 15.918C16.5483 15.1887 15.8456 14.2814 15.3811 13.2586C16.4761 13.504 17.5086 14.007 18.4039 14.7387C19.3016 15.4679 20.0019 16.3752 20.4664 17.3981" fill="#CEB888"/>
<path d="M7.8188 14.6449L8.06188 15.415C8.65392 17.2922 9.80432 18.871 11.3927 19.9805C12.9811 21.09 14.8608 21.6266 16.8246 21.5376L17.6309 21.5015L17.3878 20.7314C16.7957 18.8517 15.6453 17.273 14.0569 16.1659C12.4709 15.0564 10.5913 14.5197 8.62504 14.6112L7.8188 14.6473L7.8188 14.6449ZM15.898 20.2885C14.5262 20.1995 13.2314 19.747 12.1051 18.9624C10.9788 18.1755 10.11 17.1141 9.55403 15.8578C10.9258 15.9469 12.223 16.3969 13.347 17.1839C14.4709 17.9685 15.3421 19.0322 15.898 20.2885" fill="#CEB888"/>
<path d="M5.65787 8.11811C5.65787 9.03024 5.80227 9.9496 6.09107 10.8497L6.33896 11.6174L7.01765 11.1818C8.67345 10.1181 9.89364 8.59222 10.5483 6.76796C11.2029 4.94609 11.2293 2.99187 10.6253 1.11706L10.3774 0.34933L9.69869 0.784939C8.04049 1.8511 6.8203 3.37694 6.16809 5.19639C5.82874 6.14462 5.65787 7.12656 5.65787 8.11811ZM7.05375 9.62469C6.77939 8.27695 6.87565 6.90755 7.33774 5.61516C7.79982 4.32517 8.59884 3.20606 9.665 2.33966C9.93936 3.68499 9.8431 5.0544 9.38101 6.34919C8.91652 7.64158 8.11991 8.76069 7.05375 9.6271" fill="#CEB888"/>
<path d="M11.4632 8.95288L12.3657 8.73628C14.1827 8.29826 15.8313 7.31874 17.1333 5.90602C18.4353 4.49329 19.2753 2.7701 19.5641 0.924175L19.7061 0.00722817L18.8035 0.223828C16.9865 0.661845 15.3355 1.63896 14.0335 3.05168C12.7315 4.46441 11.8915 6.1876 11.6027 8.03593L11.4608 8.95288L11.4632 8.95288ZM18.1128 1.73523C17.7566 2.95782 17.1141 4.09138 16.2188 5.06368C15.3235 6.03357 14.2453 6.77002 13.054 7.22488C13.4102 5.99988 14.0528 4.86392 14.948 3.89402C15.8409 2.92413 16.9215 2.19009 18.1128 1.73523Z" fill="#CEB888"/>
<path d="M18.5119 7.18424L19.4385 7.19868C21.1255 7.22515 22.7886 6.74141 24.247 5.80039C25.7055 4.85938 26.8294 3.54052 27.496 1.99061L27.8643 1.13864L26.9377 1.1242C25.2482 1.09773 23.5876 1.57907 22.1291 2.52249C20.6731 3.4635 19.5492 4.78236 18.8801 6.33227L18.5119 7.18424ZM25.8739 2.42622C25.3011 3.35039 24.519 4.1446 23.5731 4.7583C22.6273 5.3696 21.5804 5.75707 20.5022 5.89907C21.075 4.97249 21.8572 4.17829 22.803 3.56699C23.7488 2.95569 24.7957 2.56821 25.8739 2.42862" fill="#CEB888"/>
<path d="M25.6918 6.83982L26.5726 7.12862C28.1779 7.65328 29.9083 7.68216 31.5785 7.21285C33.2487 6.74355 34.712 5.81938 35.8095 4.53421L36.4111 3.82905L35.5303 3.54025C33.925 3.01559 32.1946 2.98672 30.5244 3.45361C28.8541 3.92051 27.3933 4.84708 26.2934 6.13225L25.6918 6.83741L25.6918 6.83982ZM34.1296 4.46923C33.3089 5.18402 32.3294 5.71108 31.244 6.01673C30.1586 6.32238 29.0443 6.38255 27.9733 6.19964C28.794 5.48486 29.7759 4.95539 30.8589 4.65214C31.9443 4.3489 33.0562 4.28873 34.1296 4.47164" fill="#CEB888"/>
<path d="M31.9894 8.243L32.6753 8.86633C33.9244 10.0023 35.4911 10.7387 37.2071 10.9938C38.9255 11.2514 40.639 11.0035 42.1625 10.2815L43 9.88436L42.3141 9.26103C41.0626 8.12508 39.4959 7.38863 37.7823 7.13112C36.0663 6.87601 34.3528 7.12149 32.8269 7.84349L31.9894 8.24059L31.9894 8.243ZM40.6583 9.53539C39.6186 9.85067 38.5067 9.93009 37.39 9.76403C36.2757 9.59797 35.236 9.19605 34.3335 8.58957C35.3732 8.27429 36.4851 8.19246 37.6018 8.36093C38.7161 8.52699 39.7558 8.92891 40.6583 9.53539" fill="#CEB888"/>
<path d="M33.4772 10.9314L33.6577 11.9446C34.009 13.9253 34.9356 15.8194 36.3363 17.4222C37.737 19.0227 39.4915 20.1947 41.4072 20.806L42.3867 21.1189L42.2062 20.1057C41.8548 18.1226 40.9283 16.2285 39.53 14.6281C38.1293 13.0276 36.3748 11.858 34.4567 11.2443L33.4748 10.9314L33.4772 10.9314ZM40.7141 19.2056C39.4289 18.6135 38.2544 17.7279 37.2701 16.604C36.2858 15.48 35.5638 14.1949 35.1498 12.8447C36.435 13.4368 37.6119 14.3224 38.5938 15.4463C39.5781 16.5703 40.2977 17.853 40.7141 19.208" fill="#CEB888"/>
</svg>
